<?xml version="1.0" encoding="UTF-8"?>
<svg version="1.1" xmlns="http://www.w3.org/2000/svg" width="245" height="205">
<path d="M0 0 C80.85 0 161.7 0 245 0 C245 67.65 245 135.3 245 205 C164.15 205 83.3 205 0 205 C0 137.35 0 69.7 0 0 Z " fill="#F6F7F6" transform="translate(0,0)"/>
<path d="M0 0 C2.55535371 2.22955593 5.00056483 4.52808965 7.41796875 6.90625 C8.19140625 7.66679688 8.96484375 8.42734375 9.76171875 9.2109375 C24.96943387 25.09570843 31.98412823 45.92384587 31.83935547 67.70556641 C31.1819048 89.31435879 21.75037156 111.32437375 5.96801758 126.28027344 C-12.63786473 142.45005784 -34.83160185 150.27542269 -59.58203125 148.90625 C-83.41787585 146.83873407 -103.04683187 134.78471464 -118.58203125 116.90625 C-131.84788019 100.09781639 -137.46235623 77.70141233 -135.35498047 56.63671875 C-134.18100213 46.78109813 -132.15290558 37.79890469 -127.58203125 28.90625 C-127.07800781 27.92398438 -126.57398438 26.94171875 -126.0546875 25.9296875 C-115.02402113 5.84089745 -97.77441563 -7.95246435 -76.1484375 -15.12890625 C-49.67506919 -22.29092374 -21.39145436 -17.34617177 0 0 Z " fill="#0CAA01" transform="translate(174.58203125,37.09375)"/>
<path d="M0 0 C2.75329021 1.79562405 4.52627461 3.05254922 6 6 C6.61133861 11.37977979 5.13717285 13.71247252 2 18 C0.4101825 19.79163765 -1.22683737 21.54216092 -2.90112305 23.25512695 C-3.37492905 23.74207535 -3.84873505 24.22902374 -4.3368988 24.73072815 C-5.88943002 26.32232545 -7.44958751 27.90610804 -9.01171875 29.48828125 C-9.54844522 30.03315878 -10.0851717 30.57803631 -10.63816261 31.13942528 C-13.47607365 34.01887274 -16.3203608 36.89185053 -19.16967773 39.76000977 C-22.10092329 42.71343475 -25.00805412 45.68947254 -27.9104948 48.67117023 C-30.15777179 50.97083663 -32.42273688 53.2524566 -34.69275856 55.52965355 C-35.77234889 56.61894985 -36.84520736 57.71496336 -37.91089439 58.81786537 C-47.26504331 68.4782401 -47.26504331 68.4782401 -52.97875977 69.35742188 C-55.62296962 69.32904333 -56.91534685 69.04114243 -59.32128906 67.87182617 C-59.88041992 67.28892822 -60.43955078 66.70603027 -61.015625 66.10546875 C-61.66595703 65.45626465 -62.31628906 64.80706055 -62.98632812 64.13818359 C-63.65083984 63.43258301 -64.31535156 62.72698242 -65 62 C-66.45150664 60.57777352 -67.90466725 59.15723334 -69.359375 57.73828125 C-70.82551729 56.26560535 -72.28904505 54.7903221 -73.75 53.3125 C-74.49121094 52.56677734 -75.23242188 51.82105469 -75.99609375 51.05273438 C-77.36934689 49.67085217 -78.74155944 48.28793437 -80.11230469 46.90356445 C-81.45408542 45.55050387 -82.810534 44.21192023 -84.17675781 42.88354492 C-86.4820621 40.50199396 -86.9547354 39.50922679 -87.25 36.1875 C-86.96338591 32.53317034 -86.2909115 30.84389014 -84 28 C-81.23640257 26.35677991 -79.39440165 26.00876448 -76.1875 25.9375 C-67.40211866 28.86596045 -60.4075512 38.48644152 -54 45 C-48.38028216 40.3278605 -43.21288904 35.32944888 -38.07421875 30.13671875 C-36.83101616 28.88783623 -36.83101616 28.88783623 -35.56269836 27.61372375 C-32.93518692 24.97406719 -30.3109543 22.33118845 -27.6875 19.6875 C-24.21508086 16.18856661 -20.73942004 12.69290117 -17.26171875 9.19921875 C-16.46279709 8.39199875 -15.66387543 7.58477875 -14.84074402 6.75309753 C-14.10270035 6.01175064 -13.36465668 5.27040375 -12.60424805 4.5065918 C-11.62998116 3.52446968 -11.62998116 3.52446968 -10.6360321 2.52250671 C-7.30505739 -0.57732938 -4.43653441 -0.37597749 0 0 Z " fill="#FAFCFA" transform="translate(163,68)"/>
<path d="M0 0 C2 3 2 3 1.7578125 5.26171875 C1.54898438 6.06222656 1.34015625 6.86273438 1.125 7.6875 C0.92132813 8.49574219 0.71765625 9.30398437 0.5078125 10.13671875 C0.25644531 11.05904297 0.25644531 11.05904297 0 12 C-2.31 11.67 -4.62 11.34 -7 11 C-7.33 13.97 -7.66 16.94 -8 20 C-10.31 20 -12.62 20 -15 20 C-15.144375 20.94875 -15.28875 21.8975 -15.4375 22.875 C-16 26 -16 26 -17 28 C-17.804375 27.87625 -18.60875 27.7525 -19.4375 27.625 C-24.51534744 28.15951026 -28.15526686 30.70207335 -32 34 C-32 34.66 -32 35.32 -32 36 C-34.875 36.125 -34.875 36.125 -38 36 C-40 34 -40 34 -40.125 31.375 C-40.08375 30.59125 -40.0425 29.8075 -40 29 C-38 28 -38 28 -34.11328125 28.15625 C-26.66900781 27.39319334 -21.98178905 20.69068237 -17.1875 15.5 C-15.65529718 13.86979207 -14.11739362 12.2456751 -12.57063293 10.62927246 C-11.1757443 9.16740023 -9.79866294 7.68859781 -8.42260742 6.20898438 C-6.01577601 4.01438489 -5.04546303 3.62251455 -2 3 C-1.34 2.01 -0.68 1.02 0 0 Z " fill="#08D909" transform="translate(144,108)"/>
<path d="M0 0 C1.98 0 3.96 0 6 0 C6.7265625 1.69140625 6.7265625 1.69140625 7 4 C5.5234375 6.40234375 5.5234375 6.40234375 3.375 8.9375 C2.62863281 9.82050781 1.88226563 10.70351562 1.11328125 11.61328125 C-1.17441189 14.19697904 -3.46776692 16.65305226 -6 19 C-6.65613281 19.62648437 -7.31226563 20.25296875 -7.98828125 20.8984375 C-12.80601997 25.37502374 -17.79324706 29.59865584 -24 32 C-24.66 31.67 -25.32 31.34 -26 31 C-26 29.02 -26 27.04 -26 25 C-22.04 24.505 -22.04 24.505 -18 24 C-18 22.35 -18 20.7 -18 19 C-17.01 18.67 -16.02 18.34 -15 18 C-14.67 17.34 -14.34 16.68 -14 16 C-12.35 16 -10.7 16 -9 16 C-9.33 13.36 -9.66 10.72 -10 8 C-7.69 8.33 -5.38 8.66 -3 9 C-2.690625 7.88625 -2.38125 6.7725 -2.0625 5.625 C-1 2 -1 2 0 0 Z M-6 11 C-5 13 -5 13 -5 13 Z " fill="#139808" transform="translate(186,144)"/>
<path d="M0 0 C-0.804375 0.28875 -1.60875 0.5775 -2.4375 0.875 C-5.1326468 1.73262568 -5.1326468 1.73262568 -6 4 C-7.98 3.34 -9.96 2.68 -12 2 C-12 1.34 -12 0.68 -12 0 C-12.66 -0.33 -13.32 -0.66 -14 -1 C-14 -0.34 -14 0.32 -14 1 C-20.69860922 2.02250405 -27.2315198 2.11756273 -34 2.0625 C-35.06089844 2.05798828 -36.12179688 2.05347656 -37.21484375 2.04882812 C-39.80995598 2.03713843 -42.40494709 2.02075276 -45 2 C-45.33 0.68 -45.66 -0.64 -46 -2 C-35.6872801 -8.8751466 -10.00882164 -6.67254776 0 0 Z " fill="#FCFCFC" transform="translate(150,17)"/>
<path d="M0 0 C0.99 0.495 0.99 0.495 2 1 C7.82597803 19.32844182 7.25434636 36.68015845 2 55 C1.67 55 1.34 55 1 55 C0.1690477 49.36230825 0.06452494 44.61285039 1 39 C0.67 38.67 0.34 38.34 0 38 C0.15449757 32.46185633 1.32329318 27.25368138 3 22 C2.01 22.33 1.02 22.66 0 23 C0 15.41 0 7.82 0 0 Z " fill="#0D9805" transform="translate(200,74)"/>
<path d="M0 0 C1.2065625 0.0309375 1.2065625 0.0309375 2.4375 0.0625 C2.2725 0.990625 2.1075 1.91875 1.9375 2.875 C1.36001612 6.01871353 1.36001612 6.01871353 1.4375 9.0625 C-2.90535714 13.0625 -2.90535714 13.0625 -5.5625 13.0625 C-5.2325 14.0525 -4.9025 15.0425 -4.5625 16.0625 C-5.2225 16.0625 -5.8825 16.0625 -6.5625 16.0625 C-6.2325 18.3725 -5.9025 20.6825 -5.5625 23.0625 C-6.14 23.18625 -6.7175 23.31 -7.3125 23.4375 C-10.73390155 24.38788932 -13.04405568 25.54405568 -15.5625 28.0625 C-15.8925 27.0725 -16.2225 26.0825 -16.5625 25.0625 C-17.5525 25.0625 -18.5425 25.0625 -19.5625 25.0625 C-18.716875 24.0725 -17.87125 23.0825 -17 22.0625 C-16.45601562 21.42054687 -15.91203125 20.77859375 -15.3515625 20.1171875 C-14.170167 18.7603883 -12.9565122 17.4309431 -11.7109375 16.1328125 C-7.76110417 11.94766995 -5.58128466 8.42295227 -4.0703125 2.84765625 C-3.27171917 0.04029354 -3.01486801 0.07353337 0 0 Z " fill="#109708" transform="translate(173.5625,71.9375)"/>
<path d="M0 0 C1.4540625 0.0309375 1.4540625 0.0309375 2.9375 0.0625 C3.2675 2.7025 3.5975 5.3425 3.9375 8.0625 C8.5575 8.0625 13.1775 8.0625 17.9375 8.0625 C14.77372911 11.87340585 11.99576267 15.1952492 7.9375 18.0625 C5.9215042 16.18150392 3.92578018 14.28491328 1.9375 12.375 C1.36515625 11.84455078 0.7928125 11.31410156 0.203125 10.76757812 C-3.95957274 6.7287702 -3.95957274 6.7287702 -4.5 3.23046875 C-3.81724507 -0.15282577 -3.59121614 0.07329013 0 0 Z " fill="#08BF03" transform="translate(101.0625,95.9375)"/>
<path d="M0 0 C2 3 2 3 1.7578125 5.26171875 C1.54898438 6.06222656 1.34015625 6.86273438 1.125 7.6875 C0.92132813 8.49574219 0.71765625 9.30398437 0.5078125 10.13671875 C0.34023437 10.75160156 0.17265625 11.36648437 0 12 C-2.31 11.67 -4.62 11.34 -7 11 C-7.33 13.97 -7.66 16.94 -8 20 C-15.09821429 19.33035714 -15.09821429 19.33035714 -18 16 C-16.09236669 14.01138225 -14.17484089 12.03434282 -12.25 10.0625 C-11.44175781 9.21655273 -11.44175781 9.21655273 -10.6171875 8.35351562 C-10.08867187 7.81533203 -9.56015625 7.27714844 -9.015625 6.72265625 C-8.53383789 6.22515869 -8.05205078 5.72766113 -7.55566406 5.21508789 C-6 4 -6 4 -3.93652344 3.51733398 C-1.6047444 3.12286941 -1.6047444 3.12286941 0 0 Z " fill="#08C205" transform="translate(144,108)"/>
<path d="M0 0 C0 0.99 0 1.98 0 3 C-0.66 3 -1.32 3 -2 3 C-4.08379509 6.84700632 -5.49686624 10.90054429 -7 15 C-8.32 14.34 -9.64 13.68 -11 13 C-12.54166642 14.37485532 -12.54166642 14.37485532 -14 16 C-14 18.42797311 -13.49914315 20.62907005 -13 23 C-15.98241547 23.77321882 -18.97580475 24.41196203 -22 25 C-22 18.44400188 -17.33909081 14.62623653 -13 10 C-8.88586052 6.32919452 -4.58508114 3.05672076 0 0 Z " fill="#16990F" transform="translate(77,32)"/>
<path d="M0 0 C6.7186905 1.99613268 12.80734808 4.7291421 19 8 C18.67 8.99 18.34 9.98 18 11 C17.34 11 16.68 11 16 11 C16 10.01 16 9.02 16 8 C15.22914063 8 14.45828125 8 13.6640625 8 C9.109375 8 4.5546875 8 0 8 C0 5.36 0 2.72 0 0 Z " fill="#10D104" transform="translate(144,24)"/>
<path d="M0 0 C0.33 0 0.66 0 1 0 C1.50116575 12.68227772 0.50251075 23.78812099 -3 36 C-3.33 36 -3.66 36 -4 36 C-5.00493238 30.01114623 -4.88276474 25.86979597 -3 20 C-3 19.01 -3 18.02 -3 17 C-3 13.37342234 -2.03421899 10.46767545 -1 7 C-0.63049535 4.67212073 -0.28647533 2.33954855 0 0 Z " fill="#10950E" transform="translate(205,93)"/>
<path d="M0 0 C1.65 0 3.3 0 5 0 C6.2109375 1.546875 6.2109375 1.546875 7 4 C5.99212459 6.60515164 4.96372907 8.82847536 3.625 11.25 C3.28210938 11.8996875 2.93921875 12.549375 2.5859375 13.21875 C1.73816328 14.82010131 0.87091321 16.41111444 0 18 C-0.33 18 -0.66 18 -1 18 C-1.33 13.38 -1.66 8.76 -2 4 C-1.34 4 -0.68 4 0 4 C0 2.68 0 1.36 0 0 Z M4 1 C5 4 5 4 5 4 Z " fill="#129509" transform="translate(194,128)"/>
<path d="M0 0 C3.63 0 7.26 0 11 0 C11 0.66 11 1.32 11 2 C8.62854106 2.84479453 6.25365876 3.67593283 3.875 4.5 C3.20984375 4.73847656 2.5446875 4.97695312 1.859375 5.22265625 C-2.23354055 6.62708806 -5.61131792 7.27343814 -10 7 C-8.9375 4.5625 -8.9375 4.5625 -7 2 C-3.3125 1.1875 -3.3125 1.1875 0 1 C0 0.67 0 0.34 0 0 Z " fill="#10A20B" transform="translate(146,177)"/>
<path d="M0 0 C2.31 0 4.62 0 7 0 C7.34548714 6.33393082 6.29342747 11.10261508 4 17 C0.68341387 12.0251208 -0.38479461 5.96431647 0 0 Z " fill="#0D9706" transform="translate(40,112)"/>
<path d="M0 0 C-0.99 0.495 -0.99 0.495 -2 1 C-2 1.66 -2 2.32 -2 3 C1.96 3 5.92 3 10 3 C10 3.33 10 3.66 10 4 C7.62561751 4.3383344 5.25065041 4.67079002 2.875 5 C2.20984375 5.09539063 1.5446875 5.19078125 0.859375 5.2890625 C-3.12628981 5.83611453 -6.97859938 6.10022182 -11 6 C-11 5.34 -11 4.68 -11 4 C-10.34 3.67 -9.68 3.34 -9 3 C-9.66 2.01 -10.32 1.02 -11 0 C-6.94952424 -1.35015859 -4.2079832 -0.62084998 0 0 Z " fill="#EDF5ED" transform="translate(107,16)"/>
<path d="M0 0 C1.32 0.66 2.64 1.32 4 2 C0.6959847 7.75143403 0.6959847 7.75143403 -2.625 8.9375 C-5 9 -5 9 -7 8 C-7.33 8.99 -7.66 9.98 -8 11 C-8.66 9.68 -9.32 8.36 -10 7 C-6.7 4.69 -3.4 2.38 0 0 Z " fill="#FDFCFC" transform="translate(77,24)"/>
<path d="M0 0 C-0.99 0.495 -0.99 0.495 -2 1 C-2 1.66 -2 2.32 -2 3 C-4.31 3.66 -6.62 4.32 -9 5 C-9 5.99 -9 6.98 -9 8 C-10.32 7.67 -11.64 7.34 -13 7 C-13 7.66 -13 8.32 -13 9 C-15.64 9.33 -18.28 9.66 -21 10 C-18.11960759 5.89008757 -15.71441634 4.03536084 -11.0625 2.1875 C-9.53302734 1.55908203 -9.53302734 1.55908203 -7.97265625 0.91796875 C-5.11386207 0.03516109 -2.96550514 -0.19114674 0 0 Z " fill="#12D106" transform="translate(106,23)"/>
<path d="M0 0 C5.69625604 -0.33420016 9.80079434 0.69480115 15.0625 2.8125 C16.0844043 3.20405273 16.0844043 3.20405273 17.12695312 3.60351562 C21.20440606 5.18984458 25.1135941 6.98100911 29 9 C29 9.33 29 9.66 29 10 C23.00959518 9.49017831 18.39758125 7.5707645 13 5 C8.75216833 3.13509829 4.50497075 2.06897611 0 1 C0 0.67 0 0.34 0 0 Z " fill="#199816" transform="translate(136,21)"/>
<path d="M0 0 C1.23621824 2.47243647 0.98408601 3.77317939 0.6875 6.5 C0.56955078 7.69109375 0.56955078 7.69109375 0.44921875 8.90625 C0 11 0 11 -2 13 C-2.81928886 11.75443908 -3.63015186 10.50333365 -4.4375 9.25 C-4.88996094 8.55390625 -5.34242187 7.8578125 -5.80859375 7.140625 C-6.9608009 5.07042986 -7.54676982 3.31303676 -8 1 C-6.8553125 1.309375 -6.8553125 1.309375 -5.6875 1.625 C-2.78114056 2.33391203 -2.78114056 2.33391203 0 0 Z " fill="#10A007" transform="translate(55,136)"/>
<path d="M0 0 C-0.81404297 0.58007812 -0.81404297 0.58007812 -1.64453125 1.171875 C-2.71767578 1.95304687 -2.71767578 1.95304687 -3.8125 2.75 C-4.52019531 3.26046875 -5.22789063 3.7709375 -5.95703125 4.296875 C-8.08077662 5.92522674 -8.08077662 5.92522674 -9.5625 8.15625 C-11 10 -11 10 -14.1875 10.75 C-15.5796875 10.87375 -15.5796875 10.87375 -17 11 C-15.12051914 6.77116807 -13.15338839 3.0018438 -8.80859375 0.98046875 C-2.48491989 -1.24245994 -2.48491989 -1.24245994 0 0 Z " fill="#0EBC03" transform="translate(89,30)"/>
<path d="M0 0 C0 0.66 0 1.32 0 2 C-1.51980469 2.59748047 -1.51980469 2.59748047 -3.0703125 3.20703125 C-4.42193071 3.74204679 -5.77349009 4.27721096 -7.125 4.8125 C-7.79015625 5.07353516 -8.4553125 5.33457031 -9.140625 5.60351562 C-12.29791409 6.85714511 -15.24816593 8.13484679 -18.2421875 9.76171875 C-21 11 -21 11 -23.375 10.6875 C-23.91125 10.460625 -24.4475 10.23375 -25 10 C-5.73972603 0 -5.73972603 0 0 0 Z " fill="#219A1F" transform="translate(104,21)"/>
<path d="M0 0 C2 1 2 1 3.1875 4.1875 C4.02029112 8.09521217 3.86229703 10.1588587 3 14 C2.84625978 15.43667587 2.70069526 16.87424561 2.5625 18.3125 C2.376875 19.529375 2.19125 20.74625 2 22 C1.34 22.33 0.68 22.66 0 23 C0 15.41 0 7.82 0 0 Z " fill="#199812" transform="translate(200,74)"/>
<path d="M0 0 C2.6875 -0.3125 2.6875 -0.3125 5 0 C-1.15034169 7.48291572 -1.15034169 7.48291572 -5 10 C-6.32 8.68 -7.64 7.36 -9 6 C-8.67 5.01 -8.34 4.02 -8 3 C-5.525 3.99 -5.525 3.99 -3 5 C-2.608125 4.175 -2.21625 3.35 -1.8125 2.5 C-1.214375 1.675 -0.61625 0.85 0 0 Z " fill="#15C413" transform="translate(114,104)"/>
<path d="M0 0 C2.31 0 4.62 0 7 0 C3.40945767 3.88975419 -0.73898882 6.89732195 -5 10 C-5.75 7.75 -5.75 7.75 -6 5 C-4.0625 2.6875 -4.0625 2.6875 -2 1 C-1.67 1.33 -1.34 1.66 -1 2 C-0.67 1.34 -0.34 0.68 0 0 Z " fill="#ECF8EC" transform="translate(70,32)"/>
<path d="M0 0 C1.65 0 3.3 0 5 0 C4.01 0.33 3.02 0.66 2 1 C2 1.66 2 2.32 2 3 C3.2684375 3.1546875 3.2684375 3.1546875 4.5625 3.3125 C8.41442701 4.0828854 11.44075031 5.36274514 15 7 C13 8 13 8 10.3671875 7.1640625 C9.25601563 6.77992187 8.14484375 6.39578125 7 6 C4.37550431 5.42208075 1.76336423 4.87608468 -0.875 4.375 C-1.56335938 4.2409375 -2.25171875 4.106875 -2.9609375 3.96875 C-4.63993755 3.64227777 -6.31987536 3.32063447 -8 3 C-8 2.67 -8 2.34 -8 2 C-5.36 2 -2.72 2 0 2 C0 1.34 0 0.68 0 0 Z " fill="#E5F5E4" transform="translate(136,16)"/>
<path d="M0 0 C2.86453858 3.41016497 4.34703566 6.90694544 6 11 C4.68 11.33 3.36 11.66 2 12 C-0.50298434 9.06171403 -1.46930939 6.82097239 -2 3 C-1.34 3 -0.68 3 0 3 C0 2.01 0 1.02 0 0 Z " fill="#189711" transform="translate(194,60)"/>
<path d="M0 0 C0.71607422 -0.01224609 1.43214844 -0.02449219 2.16992188 -0.03710938 C5.96223108 -0.04765333 8.84849094 0.06440785 12.0625 2.1875 C8.02215637 2.88679024 4.99328151 3.32869463 1.0625 2.1875 C-1.87107401 2.06526775 -4.35207262 2.02488128 -7.1875 2.8125 C-7.765 2.93625 -8.3425 3.06 -8.9375 3.1875 C-9.5975 2.5275 -10.2575 1.8675 -10.9375 1.1875 C-7.2560193 -0.03966023 -3.83339238 0.00343186 0 0 Z " fill="#0EDF02" transform="translate(119.9375,20.8125)"/>
<path d="M0 0 C0.33 0 0.66 0 1 0 C1.08710289 3.10398978 1.14042309 6.20766548 1.1875 9.3125 C1.21263672 10.19357422 1.23777344 11.07464844 1.26367188 11.98242188 C1.27333984 12.82998047 1.28300781 13.67753906 1.29296875 14.55078125 C1.3086792 15.33106689 1.32438965 16.11135254 1.34057617 16.9152832 C0.91847304 19.49903853 -0.01489942 20.36292167 -2 22 C-3.01601267 16.2087278 -2.85815609 12.67769916 -1 7 C-0.63049535 4.67212073 -0.28647533 2.33954855 0 0 Z " fill="#239D1C" transform="translate(205,93)"/>
<path d="M0 0 C0.33 1.32 0.66 2.64 1 4 C0.34 4 -0.32 4 -1 4 C-0.01 5.485 -0.01 5.485 1 7 C1.1953125 9.26171875 1.1953125 9.26171875 1.125 11.6875 C1.10695313 12.49574219 1.08890625 13.30398437 1.0703125 14.13671875 C1.03550781 15.05904297 1.03550781 15.05904297 1 16 C-1.51917486 13.32337671 -2.9001142 11.68493121 -3.4375 8 C-2.95288871 4.67695118 -1.92289889 2.72410676 0 0 Z " fill="#E5F6E2" transform="translate(79,96)"/>
<path d="M0 0 C0.66 0.66 1.32 1.32 2 2 C1.01 2.33 0.02 2.66 -1 3 C-1 2.34 -1 1.68 -1 1 C-2.32 1 -3.64 1 -5 1 C-5 1.66 -5 2.32 -5 3 C-4.01 3.33 -3.02 3.66 -2 4 C-6.41062136 5.0257259 -8.92630576 5.03684712 -13 3 C-9.36169862 -0.7964884 -4.95093128 -0.73594924 0 0 Z " fill="#12B00A" transform="translate(101,176)"/>
<path d="M0 0 C2.46008778 0.08679142 4.91643517 0.19360955 7.375 0.3125 C8.07367188 0.33505859 8.77234375 0.35761719 9.4921875 0.38085938 C11.5234375 0.48828125 11.5234375 0.48828125 15 1 C15.66 1.99 16.32 2.98 17 4 C10.54107286 4.40368295 5.93891422 3.5915262 0 1 C0 0.67 0 0.34 0 0 Z " fill="#F2FAEB" transform="translate(108,185)"/>
<path d="M0 0 C1.32 0 2.64 0 4 0 C4 0.66 4 1.32 4 2 C4.66 2.33 5.32 2.66 6 3 C5.67 4.32 5.34 5.64 5 7 C4.01 6.34 3.02 5.68 2 5 C-0.05709596 4.75944532 -0.05709596 4.75944532 -2.1875 4.875 C-3.445625 4.91625 -4.70375 4.9575 -6 5 C-6 4.34 -6 3.68 -6 3 C-4.02 2.67 -2.04 2.34 0 2 C0 1.34 0 0.68 0 0 Z " fill="#15930E" transform="translate(161,64)"/>
<path d="M0 0 C0 2.31 0 4.62 0 7 C-2.475 6.01 -2.475 6.01 -5 5 C-5.33 5.99 -5.66 6.98 -6 8 C-6.66 7.67 -7.32 7.34 -8 7 C-8 6.34 -8 5.68 -8 5 C-2.52380952 0 -2.52380952 0 0 0 Z " fill="#FDFDFD" transform="translate(65,35)"/>
<path d="M0 0 C2.15827162 3.23740742 2.73320331 4.24233303 2 8 C-1 10.3125 -1 10.3125 -4 12 C-3.52309796 10.37433394 -3.04340334 8.74948689 -2.5625 7.125 C-2.29566406 6.22007813 -2.02882812 5.31515625 -1.75390625 4.3828125 C-1 2 -1 2 0 0 Z " fill="#299E23" transform="translate(46,68)"/>
<path d="M0 0 C2.31 1.98 4.62 3.96 7 6 C4 8 4 8 0 8 C0 5.36 0 2.72 0 0 Z " fill="#18D718" transform="translate(96,128)"/>
<path d="M0 0 C2.31 1.98 4.62 3.96 7 6 C4 8 4 8 0 8 C0 5.36 0 2.72 0 0 Z " fill="#1DC11B" transform="translate(80,112)"/>
<path d="M0 0 C0.556875 0.185625 1.11375 0.37125 1.6875 0.5625 C4.399133 1.07551165 6.34371039 0.6640724 9 0 C8.04578192 1.14926266 7.08647955 2.29430541 6.125 3.4375 C5.59132812 4.07558594 5.05765625 4.71367188 4.5078125 5.37109375 C3 7 3 7 1 8 C1.020625 7.05125 1.04125 6.1025 1.0625 5.125 C1.22551826 2.09333717 1.22551826 2.09333717 0 0 Z " fill="#E9F6E9" transform="translate(137,104)"/>
<path d="M0 0 C2.31 1.98 4.62 3.96 7 6 C5.02 6.99 5.02 6.99 3 8 C2.01 7.67 1.02 7.34 0 7 C0 4.69 0 2.38 0 0 Z " fill="#1FCB1B" transform="translate(88,120)"/>
<path d="M0 0 C4.2742558 1.5830577 6.26531794 4.50568404 9 8 C6.69 7.67 4.38 7.34 2 7 C1.855625 6.401875 1.71125 5.80375 1.5625 5.1875 C1.1127561 3.43849596 0.57107659 1.71322977 0 0 Z " fill="#0F9409" transform="translate(176,40)"/>
<path d="M0 0 C0.99 0.33 1.98 0.66 3 1 C1.35 2.98 -0.3 4.96 -2 7 C-2.99 6.67 -3.98 6.34 -5 6 C-3.63016497 2.83884224 -3.0109362 2.0072908 0 0 Z " fill="#EFF9EB" transform="translate(133,113)"/>
<path d="M0 0 C0.99 0 1.98 0 3 0 C2.343621 4.48525648 1.29925791 8.66914029 0 13 C-2 10 -2 10 -1.7578125 7.51953125 C-1.54898438 6.62621094 -1.34015625 5.73289062 -1.125 4.8125 C-0.92132813 3.91144531 -0.71765625 3.01039062 -0.5078125 2.08203125 C-0.34023438 1.39496094 -0.17265625 0.70789063 0 0 Z " fill="#19960B" transform="translate(44,116)"/>
<path d="M0 0 C1.65 0 3.3 0 5 0 C5.33 1.32 5.66 2.64 6 4 C4.68 4.99 3.36 5.98 2 7 C1.34 4.69 0.68 2.38 0 0 Z " fill="#F1F8F0" transform="translate(161,80)"/>
<path d="M0 0 C2.31 0 4.62 0 7 0 C6.01 1.485 6.01 1.485 5 3 C4.67 3.99 4.34 4.98 4 6 C2.68 5.67 1.36 5.34 0 5 C0 3.35 0 1.7 0 0 Z " fill="#099502" transform="translate(169,163)"/>
<path d="M0 0 C3.03997185 1.01332395 4.21220342 1.40769496 6 4 C5.6875 7.1875 5.6875 7.1875 5 10 C2.35534962 6.8745041 1.15585285 3.91211733 0 0 Z " fill="#1D9F17" transform="translate(47,137)"/>
<path d="M0 0 C3 2 3 2 6 4 C5.67 5.32 5.34 6.64 5 8 C2.69 6.02 0.38 4.04 -2 2 C-1.34 1.34 -0.68 0.68 0 0 Z " fill="#0FBC0F" transform="translate(99,100)"/>
<path d="M0 0 C3.41158256 1.13719419 4.11854601 2.04342944 6 5 C6 5.66 6 6.32 6 7 C4.02 7 2.04 7 0 7 C0 4.69 0 2.38 0 0 Z " fill="#11970D" transform="translate(185,49)"/>
<path d="M0 0 C4.28477792 2.30718811 7.72291137 4.32966073 11 8 C5.95575532 7.55491959 3.55556591 5.39019075 0 2 C0 1.34 0 0.68 0 0 Z " fill="#169514" transform="translate(165,31)"/>
<path d="M0 0 C1.76462683 3.08809695 2 4.23312136 2 8 C0.68 8 -0.64 8 -2 8 C-2.33 6.02 -2.66 4.04 -3 2 C-2.01 2.495 -2.01 2.495 -1 3 C-0.67 2.01 -0.34 1.02 0 0 Z " fill="#1B970D" transform="translate(44,80)"/>
<path d="M0 0 C2.4294516 3.6441774 2.16179575 5.71241272 2 10 C1.01 10.33 0.02 10.66 -1 11 C-2.41687119 6.74938644 -1.19320039 4.28148375 0 0 Z " fill="#139707" transform="translate(46,123)"/>
<path d="M0 0 C0.66 0.99 1.32 1.98 2 3 C1.01 3.495 1.01 3.495 0 4 C-0.33 4.99 -0.66 5.98 -1 7 C-3.31 7 -5.62 7 -8 7 C-5.72058766 3.58088149 -5.59525083 3.89881271 -2 3 C-1.34 2.01 -0.68 1.02 0 0 Z " fill="#11B808" transform="translate(144,108)"/>
<path d="M0 0 C0.66 0.33 1.32 0.66 2 1 C2 3.31 2 5.62 2 8 C1.67 6.68 1.34 5.36 1 4 C0.01 4 -0.98 4 -2 4 C-2.33 5.32 -2.66 6.64 -3 8 C-3.75 6.25 -3.75 6.25 -4 4 C-2.0625 1.75 -2.0625 1.75 0 0 Z " fill="#0C9605" transform="translate(46,76)"/>
<path d="M0 0 C0.33 0.66 0.66 1.32 1 2 C1.33 1.67 1.66 1.34 2 1 C2.33 1 2.66 1 3 1 C3 2.65 3 4.3 3 6 C1.1875 6.6875 1.1875 6.6875 -1 7 C-2.75 5.5625 -2.75 5.5625 -4 4 C-2.68 2.68 -1.36 1.36 0 0 Z " fill="#12CA0E" transform="translate(130,120)"/>
<path d="M0 0 C3.79588866 0.54226981 5.47211993 2.20127563 8 5 C6.02 5.33 4.04 5.66 2 6 C2.33 4.68 2.66 3.36 3 2 C2.01 1.67 1.02 1.34 0 1 C0 0.67 0 0.34 0 0 Z " fill="#0FBC03" transform="translate(164,34)"/>
<path d="M0 0 C2 1 2 1 2 1 Z M-1 1 C-1 1.99 -1 2.98 -1 4 C-2.75 5.75 -2.75 5.75 -5 7 C-7.25 6.6875 -7.25 6.6875 -9 6 C-8.34 6 -7.68 6 -7 6 C-7 5.34 -7 4.68 -7 4 C-5.02 3.01 -3.04 2.02 -1 1 Z " fill="#F0F0F0" transform="translate(174,176)"/>
<path d="M0 0 C1.32 0.66 2.64 1.32 4 2 C1.03 4.475 1.03 4.475 -2 7 C-2.125 4.625 -2.125 4.625 -2 2 C-1.34 1.34 -0.68 0.68 0 0 Z " fill="#16B817" transform="translate(122,96)"/>
<path d="M0 0 C0.66 0.66 1.32 1.32 2 2 C0.35 3.98 -1.3 5.96 -3 8 C-3.66 7.01 -4.32 6.02 -5 5 C-3.35 3.35 -1.7 1.7 0 0 Z " fill="#E9F5E7" transform="translate(62,41)"/>
<path d="M0 0 C0 1.65 0 3.3 0 5 C-0.99 5.33 -1.98 5.66 -3 6 C-3.99 5.01 -4.98 4.02 -6 3 C-2.25 0 -2.25 0 0 0 Z " fill="#EAF5E9" transform="translate(184,161)"/>
<path d="M0 0 C0.66 0 1.32 0 2 0 C0.44499019 3.81684226 -2.03595495 6.19195732 -5 9 C-4.67 7.35 -4.34 5.7 -4 4 C-3.34 4 -2.68 4 -2 4 C-1.34 2.68 -0.68 1.36 0 0 Z " fill="#199518" transform="translate(186,153)"/>
<path d="M0 0 C0.99 0.33 1.98 0.66 3 1 C2.67 1.99 2.34 2.98 2 4 C1.34 4 0.68 4 0 4 C0.66 4.66 1.32 5.32 2 6 C0.35 6.33 -1.3 6.66 -3 7 C-1.125 2.25 -1.125 2.25 0 0 Z " fill="#1C9515" transform="translate(52,57)"/>
<path d="M0 0 C-0.3125 1.9375 -0.3125 1.9375 -1 4 C-1.99 4.33 -2.98 4.66 -4 5 C-6.1875 3.5625 -6.1875 3.5625 -8 2 C-5.09399739 0.74335022 -3.20395416 0 0 0 Z " fill="#1AAC17" transform="translate(88,172)"/>
<path d="M0 0 C1.32 0 2.64 0 4 0 C4 0.66 4 1.32 4 2 C5.32 2.33 6.64 2.66 8 3 C8 3.33 8 3.66 8 4 C6.02 4 4.04 4 2 4 C1.34 2.68 0.68 1.36 0 0 Z " fill="#04DF03" transform="translate(104,140)"/>
<path d="M0 0 C0.66 0 1.32 0 2 0 C2 0.66 2 1.32 2 2 C2.66 2 3.32 2 4 2 C4.33 2.99 4.66 3.98 5 5 C4.01 5.495 4.01 5.495 3 6 C1.68 5.01 0.36 4.02 -1 3 C-0.67 2.01 -0.34 1.02 0 0 Z " fill="#F0FBEE" transform="translate(121,120)"/>
<path d="M0 0 C0.99 0.33 1.98 0.66 3 1 C2.01 1.495 2.01 1.495 1 2 C0.67 2.99 0.34 3.98 0 5 C-1.65 5 -3.3 5 -5 5 C-3.35 3.35 -1.7 1.7 0 0 Z " fill="#E3F3E4" transform="translate(173,168)"/>
<path d="M0 0 C0.99 0.33 1.98 0.66 3 1 C1.35 2.98 -0.3 4.96 -2 7 C-2.33 6.01 -2.66 5.02 -3 4 C-1.5625 1.8125 -1.5625 1.8125 0 0 Z " fill="#EBF4E4" transform="translate(158,88)"/>
<path d="M0 0 C0.33 0 0.66 0 1 0 C1.25 2.75 1.25 2.75 1 6 C-1 8.375 -1 8.375 -3 10 C-2.69201674 8.51988629 -2.378482 7.04092675 -2.0625 5.5625 C-1.88847656 4.73878906 -1.71445313 3.91507812 -1.53515625 3.06640625 C-1 1 -1 1 0 0 Z " fill="#169910" transform="translate(171,72)"/>
<path d="M0 0 C0.66 0.33 1.32 0.66 2 1 C0.37660195 2.70884005 -1.29319053 4.37446717 -3 6 C-3.66 6 -4.32 6 -5 6 C-3.63016497 2.83884224 -3.0109362 2.0072908 0 0 Z " fill="#EFF9ED" transform="translate(82,26)"/>
<path d="M0 0 C0 3.90838866 -1.50567876 5.11594107 -4 8 C-4.99 7.67 -5.98 7.34 -7 7 C-4.69 4.69 -2.38 2.38 0 0 Z " fill="#0DAE18" transform="translate(146,104)"/>
<path d="M0 0 C0.33 0 0.66 0 1 0 C3 6.625 3 6.625 3 10 C2.34 10 1.68 10 1 10 C-0.83691257 6.21812119 -1.15837626 4.05431692 0 0 Z " fill="#18A918" transform="translate(75,102)"/>
</svg>
